<?xml version="1.0" standalone="no"?><!DOCTYPE svg PUBLIC "-//W3C//DTD SVG 1.1//EN" "http://www.w3.org/Graphics/SVG/1.1/DTD/svg11.dtd"><svg t="1602210478366" class="icon" viewBox="0 0 1024 1024" version="1.1" xmlns="http://www.w3.org/2000/svg" p-id="4246" xmlns:xlink="http://www.w3.org/1999/xlink" width="200" height="200"><defs><style type="text/css"></style></defs><path d="M510.976 983.04C385.024 983.04 266.24 933.888 177.152 845.824 88.064 756.736 38.912 638.976 38.912 514.048s49.152-243.712 138.24-331.776C266.24 93.184 385.024 45.056 510.976 45.056s244.736 49.152 333.824 137.216c184.32 183.296 184.32 480.256 0 663.552C755.712 933.888 636.928 983.04 510.976 983.04z m0-877.568c-109.568 0-212.992 41.984-290.816 119.808C143.36 302.08 100.352 404.48 100.352 514.048S143.36 724.992 220.16 802.816C297.984 879.616 401.408 921.6 510.976 921.6s212.992-43.008 290.816-119.808c159.744-158.72 159.744-417.792 0-577.536-77.824-75.776-181.248-118.784-290.816-118.784zM343.04 788.48c-39.936 0-37.888-44.032-37.888-44.032s50.176-102.4 205.824-102.4c155.648 0 227.328 102.4 227.328 102.4C738.304 788.48 696.32 788.48 696.32 788.48s-73.728-88.064-186.368-88.064c-111.616 0-166.912 88.064-166.912 88.064z m30.72-424.96c-31.744 0-57.344 25.6-57.344 57.344 0 31.744 25.6 57.344 57.344 57.344 31.744 0 57.344-25.6 57.344-57.344 0-31.744-25.6-57.344-57.344-57.344z m295.936 0c-31.744 0-57.344 25.6-57.344 57.344 0 31.744 25.6 57.344 57.344 57.344 31.744 0 57.344-25.6 57.344-57.344 1.024-31.744-24.576-57.344-57.344-57.344z m0 0" fill="#f4ea2a" p-id="4247"></path></svg>